<?xml version="1.0" encoding="UTF-8"?>
<!DOCTYPE svg PUBLIC "-//W3C//DTD SVG 1.1//EN" "http://www.w3.org/Graphics/SVG/1.1/DTD/svg11.dtd">
<!-- Creator: CorelDRAW (Versão OEM) -->
<svg xmlns="http://www.w3.org/2000/svg" xml:space="preserve" width="69.474mm" height="35.2408mm" version="1.1" style="shape-rendering:geometricPrecision; text-rendering:geometricPrecision; image-rendering:optimizeQuality; fill-rule:evenodd; clip-rule:evenodd"
viewBox="0 0 2046.23 1037.95"
 xmlns:xlink="http://www.w3.org/1999/xlink"
 xmlns:xodm="http://www.corel.com/coreldraw/odm/2003">
 <defs>
  <style type="text/css">
   <![CDATA[
    .fil0 {fill:#FEFEFE}
   ]]>
  </style>
 </defs>
 <g id="Camada_x0020_1">
  <metadata id="CorelCorpID_0Corel-Layer"/>
  <path class="fil0" d="M982.99 379.85c-61.98,0 -123.99,0 -185.97,0 -5.41,0 -10.82,0 -16.26,0 0,-0.01 0,-0.04 0,-0.06 -74.22,-0.13 -134.71,-60.71 -134.69,-134.93 0,-74.25 60.49,-134.82 134.69,-134.95l202.23 0 0 -109.81 -202.23 -0.01 0 -0.09c-134.76,0.12 -244.6,110.08 -244.6,244.86 0,134.77 109.84,244.71 244.6,244.86 0,-0.02 0,-0.04 0,-0.06l202.23 0 0 -109.8zm94.48 656.96l110.54 0c0,-76.94 0,-153.87 0,-230.82 0,-5.45 0,-10.9 0,-16.37 0.03,0 0.04,0 0.07,0 0.12,-74.73 61.09,-135.59 135.83,-135.6 74.76,0 135.73,60.87 135.87,135.6l0.02 0 0 247.19 110.54 0 0 -155.08c36.14,91.35 125.42,156.23 229.36,156.23 50.89,0 98.25,-15.54 137.58,-42.15l0 42.15 108.94 0 0 -260.76 -0.42 0c-7.43,-129.18 -115.09,-232.25 -246.1,-232.25 -113.15,0 -208.94,76.95 -237.7,181.17 -28.21,-105.04 -124.34,-182.76 -238.1,-182.76 -111.94,0 -206.85,75.29 -236.72,177.79 -29.89,-102.51 -124.77,-177.79 -236.69,-177.79 -54.64,0 -105.18,17.94 -146.09,48.22l0 -47.47 -104.62 0c-134.49,0 -244.5,110 -244.5,244.49l0 137.38 -109.04 0 0 -0.07c-74.7,-0.1 -135.61,-61.07 -135.61,-135.85 0,-74.73 60.91,-135.71 135.61,-135.84l0 -0.02 97.04 0 0 -110.56 -97.04 0.03 0 -0.08c-135.65,0.13 -246.26,110.8 -246.25,246.49 -0.01,135.7 110.6,246.39 246.25,246.51l0 -0.04 109.04 0 0 0.51 111.24 0 0 -250.76c0,-72.66 59.45,-132.11 132.08,-132.11l46.29 0c-25.82,38.96 -40.91,85.61 -40.91,135.67 0,135.78 110.73,246.51 246.51,246.51 101.72,0 189.38,-62.17 226.96,-150.46l0 150.9zm-226.96 -382.79c74.81,0 135.84,61 135.84,135.84 0,74.83 -61.04,135.84 -135.84,135.84 -74.84,0 -135.86,-61.01 -135.86,-135.84 0,-74.84 61.02,-135.84 135.86,-135.84zm949.21 1.58c74.83,0 135.87,61.03 135.87,135.86 0,74.81 -61.04,135.85 -135.87,135.85 -74.82,0 -135.85,-61.04 -135.85,-135.85 0,-74.83 61.03,-135.86 135.85,-135.86zm-475.8 79.95l0.02 0c30.27,0 55.06,24.75 55.06,55.05l0 245.42 -110.12 0 -0 -245.42c0,-30.29 24.78,-55.05 55.05,-55.05zm-260.67 -245.9l202.21 0c0,0.02 0,0.05 0,0.06 134.74,-0.15 244.6,-110.09 244.62,-244.86 -0.01,-134.78 -109.88,-244.74 -244.62,-244.86l0 0.09 -202.21 0 -0.02 109.82 202.23 0c74.2,0.13 134.69,60.71 134.69,134.95 0,74.22 -60.49,134.8 -134.69,134.93 0,0.01 0,0.04 0,0.06 -5.44,0 -10.87,0 -16.28,0l-185.93 0 0 109.8zm-336.2 -244.79l0.02 -0.02c0,-30.07 24.57,-54.69 54.67,-54.69l482.74 0c30.09,0 54.67,24.61 54.67,54.69l0.03 0.02c0,30.09 -24.65,54.68 -54.69,54.68l-482.74 0c-30.07,0 -54.67,-24.59 -54.69,-54.68z"/>
 </g>
</svg>
